<svg width="1024" height="1024" viewBox="0 0 1024 1024" fill="none" xmlns="http://www.w3.org/2000/svg">
<g clip-path="url(#clip0_159_18)">
<path d="M531.343 387.138C522.581 386.309 516.152 378.533 516.982 369.773L525.567 279.124C531.399 217.544 585.766 172.145 646.764 177.922C655.526 178.751 661.955 186.527 661.125 195.287C660.296 204.049 652.52 210.478 643.76 209.648C600.257 205.529 561.468 238.043 557.293 282.129L548.709 372.777C547.879 381.537 540.105 387.968 531.343 387.138Z" fill="#B27214"/>
<path d="M694.732 576.867C740.121 630.762 766.747 702.727 759.53 778.935C745.378 928.37 616.654 990.041 467.243 975.892C317.808 961.74 203.714 877.073 217.866 727.64C225.125 650.988 262.283 584.7 318.723 540.385C357.18 510.18 381.276 466.001 385.887 417.312L385.961 416.53C393.04 341.781 461.634 287.435 536.743 297.258C608.268 306.593 659.267 373.142 652.464 444.971C647.924 492.875 663.729 540.062 694.732 576.867Z" fill="#F7B239"/>
<path d="M428.2 550.75C401.838 597.914 382.467 665.887 375.208 742.539C361.072 891.804 404.754 969.802 467.241 975.89C317.806 961.738 203.712 877.071 217.864 727.638C225.123 650.986 262.281 584.698 318.721 540.382C357.178 510.178 381.273 465.999 385.884 417.31L385.958 416.528C392.885 343.386 458.72 289.782 531.903 296.712C501.231 293.829 470.402 350.749 463.477 423.869L463.403 424.651C458.793 473.342 446.162 518.605 428.2 550.75Z" fill="#E09B2D"/>
<path d="M548.466 246.89C439.812 236.601 360.079 140.185 370.367 31.5515C424.684 36.6955 471.796 63.3728 504.023 102.343C536.249 141.311 553.61 192.574 548.466 246.89Z" fill="#9AD14B"/>
<path d="M548.466 246.89L370.367 31.5515C424.684 36.6955 471.796 63.3728 504.023 102.343C536.249 141.311 553.61 192.574 548.466 246.89Z" fill="#90BC42"/>
</g>
<defs>
<clipPath id="clip0_159_18">
<rect width="931" height="931" fill="white" transform="translate(91.9614 5.18579) rotate(5.40994)"/>
</clipPath>
</defs>
</svg>
