<svg width="1024" height="1024" viewBox="0 0 1024 1024" fill="none" xmlns="http://www.w3.org/2000/svg">
<g clip-path="url(#clip0_159_18)">
<g clip-path="url(#clip1_159_18)">
<path d="M610.486 166.576C532.055 155.499 496.488 198.56 462.07 254.306C435.728 296.953 411.765 362.371 361.591 415.001C311.417 467.631 196.813 529.241 189.618 686.258C182.506 843.285 273.819 969.695 503.916 1003.44C739.042 1037.99 868.501 891.449 886.24 729.643C901.205 592.724 791.693 497.973 760.423 418.397C712.666 296.821 751.157 186.398 610.486 166.576Z" fill="#B7D118"/>
<path d="M568.368 27.2953C565.79 33.6118 571.609 86.6128 574.611 111.737C578.58 145.063 582.913 187.355 586.902 208.062C589.019 219.104 597.698 224.257 606.154 224.585C614.859 224.945 626.222 219.672 627.678 208.331C630.305 187.211 638.925 125.293 642.505 100.677C646.085 76.0613 655.286 26.671 655.879 19.4265C656.16 15.9284 636.18 9.66165 611.634 10.1293C586.922 10.5758 569.829 23.7804 568.368 27.2953Z" fill="#865C51"/>
<path d="M517.462 286.239C495.841 281.613 486.924 307.815 474.178 340.258C461.348 372.69 437.656 412.395 412.963 441.537C371.102 491.027 331.707 514.748 303.02 565.171C276.198 612.216 265.705 676.923 311.584 689.879C364.693 704.858 380.965 633.151 393.038 603.988C405.581 573.791 422.288 545.896 448.932 512.039C468.444 487.197 513.807 418.298 526.733 366.104C539.92 313.187 543.499 291.853 517.462 286.239Z" fill="#E4F57D"/>
<path d="M680.103 593.796C670.597 581.974 654.522 584.623 647.183 590.665C640.229 596.335 633.317 610.847 642.366 622.947C651.405 635.13 667.533 632.068 675.991 625.833C685.289 618.948 688.299 604.02 680.103 593.796Z" fill="#E4DC9F"/>
<path d="M716.527 623.378C705.637 632.835 706.416 647.745 713.203 655.179C719.907 662.603 734.708 663.325 743.597 655.041C754.386 645.066 750.48 630.26 745.611 624.923C740.836 619.514 726.847 614.437 716.527 623.378Z" fill="#E4DC9F"/>
<path d="M774.973 661.677C761.454 670.628 765.139 686.5 769.642 692.715C775.878 701.173 790.925 702.599 799.478 695.619C808.031 688.639 812.17 673.435 803.657 665.022C795.321 656.547 783.719 655.815 774.973 661.677Z" fill="#E4DC9F"/>
<path d="M684.05 514.533C674.229 522.865 674.543 537.463 680.545 544.46C686.547 551.457 702.508 558.218 713.367 545.728C721.961 535.808 717.728 522.895 711.972 516.603C705.835 510.009 692.271 507.511 684.05 514.533Z" fill="#E4DC9F"/>
<path d="M612.511 506.782C600.852 516.981 605.879 530.921 611.435 538.114C617.713 546.24 632.214 549.952 641.277 542.28C650.329 534.691 651.252 521.599 645.25 511.32C639.249 501.041 621.617 498.778 612.511 506.782Z" fill="#E4DC9F"/>
<path d="M674.072 400.835C665.366 394.585 656.344 399.317 651.307 404.476C646.258 409.718 645.017 422.013 651.293 427.53C657.558 433.131 670.397 435.368 677.051 426.797C683.123 418.826 682.933 407.189 674.072 400.835Z" fill="#E4DC9F"/>
</g>
</g>
<defs>
<clipPath id="clip0_159_18">
<rect width="1024" height="1024" fill="white"/>
</clipPath>
<clipPath id="clip1_159_18">
<rect width="1068.29" height="1068.29" fill="white" transform="translate(100.001 -86) rotate(7.314)"/>
</clipPath>
</defs>
</svg>
